<svg width="160" height="40" viewBox="0 0 160 40" fill="none" xmlns="http://www.w3.org/2000/svg">
<path d="M2.6665 10.3333C2.6665 8.6764 4.00693 7.33325 5.66044 7.33325C7.31394 7.33325 8.65437 8.6764 8.65437 10.3333V29.6666C8.65437 31.3234 7.31394 32.6666 5.66044 32.6666C4.00693 32.6666 2.6665 31.3234 2.6665 29.6666V10.3333Z" fill="#FF7424"/>
<path d="M3.35816 12.2558C2.35157 10.9413 2.599 9.05809 3.91081 8.04946C5.22263 7.04083 7.10206 7.28877 8.10865 8.60324L19.0442 22.8836C20.0508 24.1981 19.8033 26.0813 18.4915 27.0899C17.1797 28.0986 15.3003 27.8506 14.2937 26.5362L3.35816 12.2558Z" fill="#FF7424"/>
<path d="M30.0218 12.1659C31.0284 10.8514 30.781 8.96816 29.4692 7.95954C28.1574 6.95091 26.2779 7.19884 25.2713 8.51331L14.3358 22.7937C13.3292 24.1081 13.5766 25.9914 14.8885 27C16.2003 28.0086 18.0797 27.7607 19.0863 26.4462L30.0218 12.1659Z" fill="#FF7424"/>
<path d="M34.7912 18.5141C35.7978 17.1997 35.5503 15.3164 34.2385 14.3078C32.9267 13.2992 31.0473 13.5471 30.0407 14.8616L21.5353 25.9685C20.5287 27.283 20.7761 29.1662 22.0879 30.1749C23.3997 31.1835 25.2792 30.9355 26.2857 29.6211L34.7912 18.5141Z" fill="#FF7424"/>
<path d="M31.3453 27.2329C31.3453 28.8898 32.6857 30.2329 34.3392 30.2329C35.9927 30.2329 37.3332 28.8898 37.3332 27.2329C37.3332 25.576 35.9927 24.2329 34.3392 24.2329C32.6857 24.2329 31.3453 25.576 31.3453 27.2329Z" fill="#FF7424"/>
<path d="M43.8058 20.3042V7.5H46.1424L51.157 14.0138H50.0426L54.9494 7.5H57.2859V20.3042H54.8235V10.164L55.7761 10.3874L50.6897 16.8668H50.4021L45.4414 10.3874L46.2502 10.164V20.3042H43.8058Z" fill="#111827"/>
<path d="M60.5495 20.3042L65.1686 7.5H68.332L72.9511 20.3042H70.2911L69.3385 17.5543H64.1621L63.1916 20.3042H60.5495ZM64.8631 15.4919H68.6375L66.4088 9.11556H67.0918L64.8631 15.4919Z" fill="#111827"/>
<path d="M76.2387 20.3042V7.5H81.2174C82.128 7.5 82.9308 7.66041 83.6258 7.98123C84.3327 8.2906 84.8839 8.74891 85.2793 9.35618C85.6748 9.95199 85.8725 10.6796 85.8725 11.5389C85.8725 12.4212 85.6508 13.1717 85.2074 13.7904C84.7761 14.4091 84.189 14.8674 83.4461 15.1653L86.5195 20.3042H83.7516L80.4625 14.6841L82.0441 15.5778H78.6831V20.3042H76.2387ZM78.6831 13.5154H81.2533C81.6966 13.5154 82.0801 13.4352 82.4036 13.2748C82.7271 13.1029 82.9787 12.868 83.1585 12.5701C83.3382 12.2722 83.4281 11.9285 83.4281 11.5389C83.4281 11.1379 83.3382 10.7941 83.1585 10.5077C82.9787 10.2098 82.7271 9.98064 82.4036 9.82023C82.0801 9.64836 81.6966 9.56242 81.2533 9.56242H78.6831V13.5154Z" fill="#111827"/>
<path d="M89.9189 20.3042V7.5H92.3633V20.3042H89.9189Z" fill="#111827"/>
<path d="M96.143 20.3042V18.1559H96.9159C97.491 18.1559 97.9463 18.0012 98.2818 17.6918C98.6293 17.371 98.8031 16.947 98.8031 16.42V7.5H101.265V16.334C101.265 17.1246 101.086 17.8178 100.726 18.4137C100.379 19.0095 99.8755 19.4735 99.2165 19.8058C98.5694 20.1381 97.8026 20.3042 96.9159 20.3042H96.143Z" fill="#111827"/>
<path d="M104.142 20.3042L108.761 7.5H111.925L116.544 20.3042H113.884L112.931 17.5543H107.755L106.784 20.3042H104.142ZM108.456 15.4919H112.23L110.001 9.11556H110.684L108.456 15.4919Z" fill="#111827"/>
<path d="M119.831 20.3042V7.5H122.276V18.2418H128.009V20.3042H119.831Z" fill="#111827"/>
<path d="M130.291 20.3042L134.91 7.5H138.074L142.693 20.3042H140.033L139.08 17.5543H133.904L132.933 20.3042H130.291ZM134.605 15.4919H138.379L136.151 9.11556H136.834L134.605 15.4919Z" fill="#111827"/>
<path d="M145.98 20.3042V7.5H147.886L155.255 16.9871L154.266 17.1762V7.5H156.711V20.3042H154.787L147.526 10.7483L148.425 10.5593V20.3042H145.98Z" fill="#111827"/>
<path d="M45.5169 32.335V23.5353H42.6699V22.0916H50.0031V23.5353H47.1992V32.335H45.5169Z" fill="#111827"/>
<path d="M51.6948 32.335V24.8965H53.2477V26.3952L53.1039 26.1752C53.2765 25.6894 53.5545 25.3411 53.9379 25.1303C54.3213 24.9103 54.7815 24.8003 55.3183 24.8003H55.7928V26.2165H55.117C54.5802 26.2165 54.144 26.3769 53.8085 26.6977C53.4826 27.0094 53.3196 27.4585 53.3196 28.0452V32.335H51.6948Z" fill="#111827"/>
<path d="M60.6715 32.5C60.1443 32.5 59.6794 32.4129 59.2768 32.2388C58.8838 32.0554 58.577 31.8079 58.3566 31.4963C58.1361 31.1755 58.0258 30.7996 58.0258 30.3688C58.0258 29.9655 58.1169 29.6034 58.299 29.2826C58.4908 28.9618 58.7831 28.6914 59.1761 28.4714C59.5692 28.2514 60.0628 28.0956 60.6571 28.0039L63.3604 27.5777V28.8014L60.9735 29.2001C60.5421 29.2735 60.2258 29.4064 60.0245 29.5989C59.8232 29.7822 59.7225 30.0205 59.7225 30.3138C59.7225 30.598 59.8328 30.8317 60.0532 31.0151C60.2833 31.1892 60.5757 31.2763 60.9303 31.2763C61.3713 31.2763 61.7547 31.1846 62.0806 31.0013C62.4161 30.818 62.675 30.5751 62.8571 30.2726C63.0392 29.9609 63.1303 29.6172 63.1303 29.2414V27.3302C63.1303 26.9635 62.9865 26.6656 62.6989 26.4365C62.4209 26.1982 62.0471 26.079 61.5774 26.079C61.146 26.079 60.7674 26.189 60.4415 26.409C60.1251 26.6198 59.8903 26.8948 59.7369 27.2339L58.3853 26.5877C58.5291 26.2211 58.7639 25.9002 59.0899 25.6253C59.4158 25.3411 59.7944 25.1211 60.2258 24.9653C60.6667 24.8095 61.1316 24.7315 61.6205 24.7315C62.234 24.7315 62.7756 24.8415 63.2453 25.0615C63.7246 25.2815 64.0937 25.5886 64.3525 25.9827C64.6209 26.3677 64.7551 26.8169 64.7551 27.3302V32.335H63.2022V30.9876L63.5329 31.0288C63.3508 31.3313 63.1159 31.5925 62.8283 31.8125C62.5503 32.0325 62.2292 32.2021 61.865 32.3213C61.5103 32.4404 61.1125 32.5 60.6715 32.5Z" fill="#111827"/>
<path d="M70.2098 32.335L67.1615 24.8965H68.9301L71.2738 30.9601H70.6268L72.9705 24.8965H74.7535L71.6908 32.335H70.2098Z" fill="#111827"/>
<path d="M80.8075 32.5C80.031 32.5 79.3408 32.3304 78.7369 31.9913C78.1426 31.6429 77.6777 31.1755 77.3422 30.5888C77.0067 29.993 76.8389 29.3285 76.8389 28.5951C76.8389 27.8435 77.0067 27.1789 77.3422 26.6015C77.6873 26.024 78.1474 25.5703 78.7226 25.2403C79.2977 24.9011 79.9495 24.7315 80.6781 24.7315C81.2628 24.7315 81.7852 24.8278 82.2453 25.0203C82.7055 25.2128 83.0937 25.4786 83.41 25.8177C83.7264 26.1477 83.966 26.5281 84.129 26.959C84.3015 27.3898 84.3878 27.8481 84.3878 28.3339C84.3878 28.4531 84.383 28.5768 84.3734 28.7051C84.3638 28.8335 84.3446 28.9526 84.3159 29.0626H78.1187V27.8252H83.3956L82.6192 28.3889C82.7151 27.9398 82.6815 27.541 82.5185 27.1927C82.3652 26.8352 82.1255 26.5556 81.7996 26.354C81.4833 26.1432 81.1094 26.0377 80.6781 26.0377C80.2467 26.0377 79.8633 26.1432 79.5278 26.354C79.1923 26.5556 78.9334 26.849 78.7513 27.2339C78.5692 27.6098 78.4973 28.0681 78.5356 28.6089C78.4877 29.113 78.5596 29.553 78.7513 29.9288C78.9526 30.3047 79.2306 30.598 79.5853 30.8088C79.9495 31.0196 80.3617 31.125 80.8219 31.125C81.2916 31.125 81.6894 31.0242 82.0153 30.8226C82.3508 30.6209 82.6144 30.3597 82.8061 30.0388L84.129 30.6576C83.9756 31.0059 83.7359 31.3221 83.41 31.6063C83.0937 31.8813 82.7103 32.1013 82.2597 32.2663C81.8188 32.4221 81.3347 32.5 80.8075 32.5Z" fill="#111827"/>
<path d="M87.4114 32.335V21.9266H89.0362V32.335H87.4114Z" fill="#111827"/>
</svg>
